<svg width="585" height="1266" viewBox="0 0 585 1266" fill="none" xmlns="http://www.w3.org/2000/svg">
<g clip-path="url(#clip0_38_190)">
<rect width="585" height="1266" fill="#E94134"/>
<mask id="mask0_38_190" style="mask-type:luminance" maskUnits="userSpaceOnUse" x="-416" y="-135" width="1417" height="1418">
<path d="M1000.64 -134.39H-416V1282.25H1000.64V-134.39Z" fill="white"/>
</mask>
<g mask="url(#mask0_38_190)">
<path d="M-512.467 1095.74C-522.629 1060.3 -532.863 1022.97 -524.507 987.063C-513.178 938.37 -466.865 901.844 -417.233 895.846C-367.601 889.848 -316.917 911.54 -281.767 947.089C-253.852 975.321 -235.039 1011.23 -209.373 1041.52C-149.233 1112.5 -50.0588 1148.1 41.4943 1131.56C71.0276 1126.23 101.07 1114.89 120.111 1091.69C141.387 1065.77 145.262 1029.72 143.388 996.234C140.954 952.76 129.635 908.421 102.508 874.361C51.376 810.164 -39.9461 797.915 -111.1 757.015C-174.462 720.595 -222.77 658.823 -242.846 588.552C-261.97 521.612 -253.083 442.72 -204.273 393.078C-155.464 343.436 -62.742 338.118 -19.6443 392.792C6.28516 425.686 9.82672 470.197 20.5025 510.699C42.4101 593.813 99.5276 667.031 174.813 708.504C201.327 723.111 236.403 733.143 260.121 714.332C271.085 705.636 277.272 692.309 286.833 682.09C320.523 646.088 381.793 660.556 421.762 689.429C483.606 734.105 523.907 807.323 528.571 883.473C533.234 959.623 502.167 1037.21 446.236 1089.1C368.504 1161.21 255.739 1178.71 149.99 1186.45C14.9288 1196.33 -129.713 1193.32 -243.243 1119.49C-263.732 1106.17 -283.038 1090.62 -305.502 1081C-327.966 1071.37 -355.022 1068.45 -376.187 1080.67C-405.389 1097.54 -418.951 1139.76 -452.384 1144.16C-485.067 1148.47 -507.728 1113.45 -521.66 1083.57" fill="#FA483A"/>
</g>
<mask id="mask1_38_190" style="mask-type:luminance" maskUnits="userSpaceOnUse" x="-416" y="-135" width="1417" height="1418">
<path d="M1000.64 -134.39H-416V1282.25H1000.64V-134.39Z" fill="white"/>
</mask>
<g mask="url(#mask1_38_190)">
<path d="M1036.38 1011.5C1010.01 1064.24 958.365 1101.07 902.728 1120.58C847.091 1140.09 787.286 1144.04 728.336 1144.91C687.962 1145.51 647.569 1144.74 607.247 1142.62C586.486 1141.52 562.644 1138.33 551.424 1120.82C545.916 1112.23 544.616 1101.62 544.488 1091.42C543.498 1012.4 602.825 944.089 611.288 865.521C616.123 820.623 603.969 775.818 591.748 732.347C578.87 686.541 565.365 639.877 538.357 600.703C526.639 583.708 512.305 568.208 494.726 557.384C450.367 530.068 392.262 536.686 344.45 557.372C298.449 577.274 251.251 609.916 202.868 596.825C148.165 582.024 125.254 517.492 117.574 461.344C110.009 406.031 110.466 344.771 144.673 300.65C182.408 251.978 250.447 238.392 311.997 240.512C335.079 241.306 360.268 244.828 376.021 261.717C395.973 283.109 392.905 316.625 402.707 344.186C418.271 387.953 464.728 412.494 509.323 425.496C553.919 438.499 601.755 444.716 640.669 470.083C700.002 508.761 725.267 583.956 728.858 654.692C732.449 725.428 718.64 796.001 719.333 866.825C719.529 886.835 721.101 907.607 730.838 925.09C747.289 954.629 782.289 967.514 814.399 978.1C866.365 995.229 924.061 1012.19 974.233 990.367C998.561 979.782 1018.25 961.077 1039.91 945.758C1061.58 930.44 1087.79 917.982 1113.88 922.799C1139.97 927.615 1162.23 956.543 1151.58 980.843C1143.52 999.246 1121.95 1006.84 1102.67 1012.51C1071.99 1021.52 1041.31 1030.53 1010.62 1039.55" fill="#FA483A"/>
</g>
<mask id="mask2_38_190" style="mask-type:luminance" maskUnits="userSpaceOnUse" x="-416" y="-135" width="1417" height="1418">
<path d="M1000.64 -134.39H-416V1282.25H1000.64V-134.39Z" fill="white"/>
</mask>
<g mask="url(#mask2_38_190)">
<path d="M287.451 1366.25C270.64 1327.41 276.159 1279.78 301.408 1245.81C326.656 1211.84 370.674 1192.82 412.714 1197.72C429.475 1199.68 451.007 1202.98 459.136 1188.2C461.314 1184.23 461.943 1179.61 463.711 1175.45C468.902 1163.23 483.401 1157.04 496.651 1157.86C509.901 1158.68 522.108 1165.12 533.382 1172.13C544.794 1179.22 556.842 1188.89 557.67 1202.3C558.739 1219.65 540.27 1231.95 523.177 1235.1C506.084 1238.25 487.766 1236.36 471.982 1243.63C457.32 1250.39 446.636 1265.11 444.752 1281.14C443.887 1288.5 444.747 1296.05 443.145 1303.29C439.152 1321.32 421.356 1332.58 404.33 1339.73C359.182 1358.69 307.967 1362.86 260.344 1351.47" fill="#FA483A"/>
</g>
<mask id="mask3_38_190" style="mask-type:luminance" maskUnits="userSpaceOnUse" x="-416" y="-135" width="1417" height="1418">
<path d="M1000.64 -134.39H-416V1282.25H1000.64V-134.39Z" fill="white"/>
</mask>
<g mask="url(#mask3_38_190)">
<path d="M1118.43 726.04C1112.57 778.901 1067.58 821.448 1016.91 837.613C966.239 853.778 911.104 847.836 859.344 835.609C842.304 831.583 823.67 825.594 815.084 810.334C810.762 802.655 809.655 793.625 808.968 784.841C803.291 712.272 820.553 639.513 816.585 566.832C812.616 494.15 778.785 414.516 709.807 391.268C664.125 375.872 613.457 388.643 566.277 378.746C516.151 368.23 473.866 332.274 447.095 288.61C420.325 244.947 407.564 194.069 400.606 143.327C395.337 104.911 397.425 57.5672 431.137 38.4072C454.182 25.3096 483.116 31.3289 508.192 39.9187C528.779 46.9708 549.521 55.977 564.267 71.9815C591.888 101.958 591.787 148.09 611.349 183.85C634.147 225.525 685.771 249.185 732.224 239.25C746.477 236.201 760.281 230.333 774.852 229.998C801.312 229.388 825.036 247.322 840.636 268.704C909.957 363.722 852.892 512.403 924.489 605.719C945.921 633.653 976.519 652.825 1006.43 671.39C1046.34 696.153 1086.24 720.916 1126.14 745.68" fill="#FA483A"/>
</g>
<mask id="mask4_38_190" style="mask-type:luminance" maskUnits="userSpaceOnUse" x="-416" y="-135" width="1417" height="1418">
<path d="M1000.64 -134.39H-416V1282.25H1000.64V-134.39Z" fill="white"/>
</mask>
<g mask="url(#mask4_38_190)">
<path d="M-495.277 808.561C-464.234 786.716 -421.716 786.808 -386.186 800.168C-350.656 813.529 -320.785 838.428 -292.811 864.086C-219.44 931.384 -150.493 1009.27 -57.3006 1044.31C-21.4965 1057.77 27.5901 1059.73 46.1346 1026.27C56.3585 1007.83 52.7701 984.183 42.2657 965.897C31.7614 947.611 15.3163 933.603 -1.00055 920.244C-49.2052 880.778 -99.2281 843.533 -150.858 808.667C-188.67 783.132 -228.455 757.795 -253.74 719.815C-288.228 668.012 -289.977 602.084 -301.128 540.858C-312.278 479.633 -341.402 412.73 -400.792 394.136C-457.757 376.299 -521.793 414.575 -546.597 468.87C-571.401 523.166 -563.451 587.632 -540.782 642.853C-521.093 690.817 -490.644 735.349 -482.923 786.619" fill="#FA483A"/>
</g>
<mask id="mask5_38_190" style="mask-type:luminance" maskUnits="userSpaceOnUse" x="-416" y="-135" width="1417" height="1418">
<path d="M1000.64 -134.39H-416V1282.25H1000.64V-134.39Z" fill="white"/>
</mask>
<g mask="url(#mask5_38_190)">
<path d="M-546.133 259.306C-508.653 254.208 -470.491 249.115 -433.181 255.338C-395.871 261.56 -358.857 280.94 -340.583 314.058C-334.83 324.483 -330.961 336.127 -323.183 345.142C-304.766 366.484 -265.503 363.309 -250.755 339.284C-236.578 316.189 -245.429 285.436 -235.852 260.086C-225.294 232.135 -194.133 216.729 -164.357 214.258C-123.87 210.899 -82.2023 227.505 -55.1226 257.791C-30.1381 285.734 -12.2402 327.337 24.9026 332.38C51.347 335.97 77.2205 316.687 87.4217 292.027C97.6229 267.367 94.6644 238.998 86.1943 213.691C72.3735 172.4 40.9263 134.132 -1.6579 125.047C-30.9037 118.809 -61.632 126.803 -91.0875 121.645C-124.241 115.841 -152.362 93.994 -175.739 69.7779C-193.426 51.4551 -210.15 28.937 -209.28 3.48492C-208.728 -12.7066 -201.072 -27.6656 -196.233 -43.126C-178.397 -100.102 -200.764 -164.594 -242.537 -207.249C-284.31 -249.903 -342.601 -273.073 -401.355 -283.676C-446.303 -291.788 -493.459 -293.062 -536.902 -278.962C-605.279 -256.769 -658.403 -196.305 -677.349 -126.958C-696.295 -57.6119 -682.608 18.7754 -645.919 80.5961C-610.613 140.087 -555.344 187.137 -527.705 250.555" fill="#FA483A"/>
</g>
<mask id="mask6_38_190" style="mask-type:luminance" maskUnits="userSpaceOnUse" x="-416" y="-135" width="1417" height="1418">
<path d="M1000.64 -134.39H-416V1282.25H1000.64V-134.39Z" fill="white"/>
</mask>
<g mask="url(#mask6_38_190)">
<path d="M-65.4335 -268.363C-80.2126 -231.385 -94.9917 -194.407 -109.771 -157.43C-121.632 -127.753 -133.638 -97.4562 -135.69 -65.5627C-137.742 -33.6692 -128.205 0.673645 -103.496 20.9443C-45.4044 68.6043 59.6663 17.6266 108.948 74.3502C126.53 94.5869 130.847 123.347 146.362 145.209C166.742 173.926 203.494 186.503 238.58 189.498C259.067 191.247 281.465 189.714 297.249 176.537C327.005 151.694 314.41 100.293 284.674 75.4247C254.939 50.5556 214.958 42.9879 178.665 29.3712C142.371 15.7545 105.027 -9.72733 99.7111 -48.1253C96.7758 -69.3275 104.315 -91.1635 100.014 -112.132C96.2255 -130.6 83.8214 -145.875 74.1634 -162.066C58.948 -187.574 50.0735 -216.832 48.5542 -246.494C48.0158 -257.001 47.5519 -269.256 38.9819 -275.358C31.8357 -280.446 22.0722 -278.88 13.5441 -276.824C-20.7223 -268.562 -53.912 -255.847 -84.9279 -239.1" fill="#FA483A"/>
</g>
<mask id="mask7_38_190" style="mask-type:luminance" maskUnits="userSpaceOnUse" x="-416" y="-135" width="1417" height="1418">
<path d="M1000.64 -134.39H-416V1282.25H1000.64V-134.39Z" fill="white"/>
</mask>
<g mask="url(#mask7_38_190)">
<path d="M364.774 -315.237C320.873 -295.932 275.767 -273.808 247.18 -235.302C218.593 -196.795 212.724 -137.184 246.787 -103.424C259.869 -90.4574 278.182 -81.4574 285.066 -64.3728C289.124 -54.3026 288.477 -42.8293 292.446 -32.7244C301.266 -10.2685 330.051 -2.08813 353.777 -6.46341C377.503 -10.8387 398.45 -24.2224 420.938 -32.9617C501.682 -64.3395 603.076 -26.1625 643.075 50.6767C654.441 72.5128 661.321 96.7762 675.503 116.897C689.686 137.017 714.598 152.73 738.283 146.022C751.55 142.265 762.286 132.123 775.534 128.296C805.06 119.767 833.57 144.916 849.917 170.943C866.264 196.969 879.349 227.829 906.609 242.023C919.615 205.809 923.565 166.381 918.003 128.307C910.012 73.6121 873.687 16.2573 818.658 11.0413C804.21 9.67136 789.607 12.0287 775.151 10.7473C722.907 6.1163 687.087 -42.5884 660.534 -87.8189C633.982 -133.049 604.248 -183.698 553.64 -197.467C501.464 -211.664 444.991 -180.706 392.717 -194.539C350.307 -205.763 321.027 -243.508 296.098 -279.607" fill="#FA483A"/>
</g>
<path d="M317.659 621.948C315.034 621.792 312.491 621.697 309.967 621.361C308.42 621.155 307.116 620.488 306.159 619.206C304.894 617.512 303.846 615.678 302.703 613.905C302.281 613.25 301.828 613.016 301.001 613.077C297.72 613.319 294.427 613.294 291.138 613.231C290.913 613.227 290.689 613.161 290.488 613.128C290.309 612.761 290.546 612.536 290.674 612.293C294.871 604.315 299.071 596.339 303.269 588.362C303.39 588.132 303.507 587.899 303.616 587.663C304.312 586.159 304.105 585.318 302.67 584.457C300.661 583.253 298.502 582.337 296.367 581.383C294.737 580.656 293.091 579.965 291.317 579.199C291.899 578.444 292.414 577.766 292.939 577.097C296.718 572.275 300.504 567.459 304.274 562.63C304.572 562.248 304.825 561.807 304.997 561.355C305.51 560.011 305.156 559.204 303.813 558.677C301.452 557.749 298.919 557.374 296.564 556.394C294.195 555.408 291.771 554.552 289.365 553.657C288.766 553.433 288.682 553.177 288.97 552.565C292.102 545.901 295.197 539.219 298.303 532.542C298.425 532.28 298.565 532.027 298.692 531.768C299.516 530.093 299.518 530.072 301.415 530.334C304.186 530.716 306.935 531.238 309.642 531.932C310.382 532.122 310.869 531.906 311.386 531.516C313.432 529.971 315.672 528.779 318.08 527.915C320.511 527.043 323.004 526.466 325.613 526.597C328.166 526.726 329.652 528.301 329.619 530.849C329.585 533.427 329.007 535.945 328.723 538.496C328.585 539.727 328.398 540.953 328.202 542.176C328.112 542.739 328.449 543.015 328.81 543.321C333.837 547.575 337.807 552.645 340.16 558.815C340.813 560.527 341.812 561.331 343.405 561.714C345.281 562.165 347.153 562.614 349.079 562.847C351.218 563.106 353.209 563.74 354.399 565.785C355.064 566.93 355.244 568.181 355.174 569.458C354.899 574.482 354.6 579.505 354.281 584.526C354.066 587.914 352.702 589.462 349.332 590.085C346.298 590.647 343.245 591.106 340.266 591.943C338.931 592.318 337.985 592.994 337.222 594.248C334.979 597.934 332.001 601.001 328.605 603.657C327.672 604.387 326.731 605.106 325.777 605.808C325.483 606.025 325.395 606.257 325.424 606.615C325.684 609.834 325.568 613.065 325.715 616.287C325.897 620.268 323.156 622.214 320.43 622.078C319.536 622.033 318.641 621.995 317.659 621.948ZM323.299 558.751C321.148 559.111 320.149 561.178 320.206 562.511C320.284 564.34 321.645 565.878 323.395 566.08C324.859 566.249 326.089 565.732 326.925 564.509C327.782 563.255 327.822 561.888 327.078 560.575C326.289 559.184 325.011 558.633 323.299 558.751Z" fill="#F8F8F8"/>
<path d="M231.933 560.766C233.536 558.328 235.747 557.133 238.587 557.483C241.407 557.83 243.358 559.416 244.27 562.159C244.645 563.287 244.487 564.444 244.36 565.591C244.142 567.546 243.587 569.424 242.938 571.312C243.793 571.718 244.641 571.56 245.455 571.61C245.804 571.632 245.753 571.254 245.762 571.001C245.852 568.378 246.007 565.761 246.423 563.165C247.311 557.62 249.265 552.522 252.741 548.065C259.008 540.029 267.275 535.013 276.92 532.086C280.209 531.088 283.551 530.365 286.973 529.972C288.114 529.841 287.87 529.972 287.87 529.972L282.851 553.264C282.851 553.264 282.954 557.125 285.259 557.774C289.594 558.995 293.95 560.135 298.367 561.026C298.533 561.06 298.719 561.034 298.848 561.227C298.935 561.591 298.677 561.86 298.504 562.146C295.275 567.52 292.039 572.89 288.807 578.263C288.629 578.559 288.448 578.858 288.307 579.173C287.74 580.443 288.052 581.353 289.292 581.976C291.579 583.125 294.075 583.683 296.489 584.469C298.082 584.987 299.694 585.445 301.294 585.938C301.566 586.022 301.863 586.066 302.143 586.373C301.935 586.966 301.723 587.613 301.483 588.25C298.503 596.174 295.51 604.092 292.55 612.023C292.254 612.817 291.9 613.106 290.987 613.069C288.135 612.952 285.28 612.925 282.443 612.57C281.975 612.512 281.706 612.674 281.548 613.152C280.938 614.998 279.975 616.686 279.105 618.415C278.08 620.452 276.389 621.49 274.135 621.649C271.914 621.805 269.693 621.975 267.471 622.109C264.597 622.282 262.196 620.741 261.35 618.122C261.078 617.279 260.99 616.371 260.875 615.485C260.363 611.543 259.668 607.631 258.99 603.716C258.897 603.175 258.568 602.793 258.181 602.423C255.011 599.392 252.157 596.11 250.12 592.184C248.421 588.908 247.24 585.468 246.651 581.813C246.485 580.783 246.413 579.753 246.286 578.724C246.151 577.63 245.864 577.382 244.763 577.447C243.509 577.522 242.289 577.321 241.084 577.026C240.471 576.877 240.112 577.015 239.717 577.55C238.667 578.972 237.498 580.312 235.8 580.998C234.629 581.471 233.507 581.269 232.576 580.414C231.656 579.569 231.47 578.5 231.822 577.316C231.988 576.759 232.358 576.375 232.788 576.018C233.428 575.486 234.134 575.017 234.591 574.242C230.458 570.416 229.126 566.023 231.933 560.766ZM238.405 566.807C238.571 566.049 238.736 565.29 238.7 564.505C238.679 564.069 238.53 563.7 238.096 563.547C237.672 563.396 237.269 563.556 236.985 563.852C235.682 565.214 236.051 568.055 237.762 568.816C238.073 568.226 238.223 567.584 238.405 566.807Z" fill="#F8F8F8"/>
<path d="M245.552 724.502C245.712 724.664 245.872 724.825 246.032 724.986C246.67 726.031 246.908 727.236 246.743 728.6C246.658 729.884 246.294 731.046 245.648 732.088C243.794 734.811 241.098 737.01 237.561 738.684C232.738 740.997 226.475 741.86 218.771 741.274C204.728 740.187 189.947 731.311 174.428 714.648C173.948 714.245 173.508 713.963 173.107 713.801C172.786 713.639 172.505 713.679 172.264 713.919C172.022 714.079 171.821 714.279 171.66 714.519C171.498 714.759 171.337 715.16 171.174 715.721C171.093 716.203 171.011 716.604 170.93 716.924C170.849 717.245 170.807 717.646 170.806 718.128C170.478 720.134 170.432 722.06 170.667 723.907C170.902 725.753 170.856 727.76 170.528 729.926C170.2 732.012 169.472 733.735 168.345 735.096C166.734 736.777 164.766 737.413 162.439 737.004C160.113 736.595 158.391 735.386 157.273 733.376C156.794 732.572 156.396 731.688 156.078 730.724C155.84 729.76 155.642 728.876 155.484 728.073C155.407 727.19 155.33 726.146 155.253 724.942C155.257 723.738 155.26 722.775 155.262 722.052C155.265 721.25 155.308 720.247 155.392 719.043C155.476 717.759 155.519 716.796 155.522 716.154C155.526 714.709 155.616 711.699 155.791 707.125C155.965 702.55 156.057 699.019 156.065 696.531C156.11 682.084 156.103 671.569 156.043 664.987C155.983 658.566 157.481 654.196 160.539 651.878C163.516 649.56 167.653 648.409 172.95 648.425C179.05 648.445 184.304 649.745 188.71 652.328C194.318 655.716 198.355 660.826 200.822 667.656C203.289 674.406 203.951 680.909 202.808 687.166C201.828 692.541 198.802 697.508 193.731 702.067L193.369 702.306C192.967 702.707 192.322 703.467 191.436 704.588C190.55 705.629 190.026 706.269 189.865 706.509C189.543 706.749 189.501 707.19 189.74 707.833C189.979 708.396 190.178 708.878 190.338 709.28C190.497 709.682 190.856 710.245 191.416 710.969C191.976 711.613 192.455 712.176 192.855 712.659C193.255 713.062 193.775 713.625 194.415 714.349C195.135 714.994 195.656 715.477 195.976 715.799C196.296 716.121 196.736 716.524 197.296 717.007C197.857 717.49 198.177 717.772 198.257 717.853C202.338 721.638 206.864 724.742 211.832 727.166C220.648 731.367 228.193 731.23 234.468 726.755C235.594 725.956 236.439 725.357 237.002 724.957C237.645 724.558 238.53 724.119 239.655 723.641C240.861 723.083 241.945 722.886 242.907 723.049C243.87 723.213 244.751 723.697 245.552 724.502ZM181.484 691.554C182.77 690.916 183.937 690.037 184.983 688.916C187.077 686.916 188.529 684.553 189.34 681.827C190.151 679.02 190.32 676.372 189.846 673.882C189.373 671.392 188.376 669.342 186.856 667.732C185.096 665.881 183.294 664.631 181.45 663.983C180.407 663.659 179.284 663.495 178.08 663.491C177.197 663.488 176.234 663.566 175.19 663.723C175.029 663.722 174.789 663.762 174.467 663.841C172.46 664.075 171.255 664.513 170.851 665.154C170.771 665.234 170.69 665.314 170.61 665.394C170.526 666.517 170.521 668.163 170.594 670.33C170.672 671.133 170.71 671.775 170.709 672.257C170.779 675.307 170.809 678.718 170.797 682.491C170.794 683.374 170.75 684.698 170.664 686.463C170.495 689.031 170.449 690.958 170.526 692.242C170.524 692.724 170.764 693.086 171.245 693.328C171.565 693.409 171.806 693.45 171.967 693.451C172.127 693.451 172.288 693.452 172.448 693.452C172.93 693.454 173.572 693.415 174.375 693.338C174.776 693.259 175.057 693.219 175.218 693.22C177.466 693.066 179.554 692.511 181.484 691.554ZM249.09 709.464C249.09 709.464 249.09 709.584 249.089 709.825C249.169 710.066 249.208 710.267 249.208 710.428C249.125 711.15 248.722 711.791 247.998 712.35C247.032 713.069 245.145 713.425 242.336 713.416C241.372 713.413 240.771 713.21 240.532 712.808C239.653 711.521 238.936 709.874 238.38 707.865C238.221 707.303 238.063 706.701 237.904 706.058C237.825 705.656 237.706 705.094 237.548 704.371C237.39 703.648 237.271 703.086 237.192 702.685C237.112 702.604 236.954 701.881 236.717 700.516C236.481 699.07 236.244 698.026 236.005 697.383C235.607 696.178 235.048 695.374 234.327 694.97C233.686 694.487 232.644 694.243 231.199 694.238C230.878 694.237 230.035 694.234 228.671 694.23C227.306 694.226 226.463 694.223 226.142 694.222C225.019 694.219 224.215 694.377 223.733 694.696C223.331 695.016 222.887 695.737 222.402 696.859C221.836 698.222 221.145 700.828 220.331 704.678C220.25 704.839 220.169 705.079 220.087 705.4C220.087 705.641 220.046 705.841 219.965 706.002C219.558 708.007 218.91 709.891 218.021 711.654C217.617 712.456 217.295 712.936 217.053 713.096C216.973 713.096 216.692 713.135 216.21 713.214C213.962 713.528 212.197 713.402 210.914 712.836C210.513 712.674 210.153 712.472 209.832 712.231C209.112 711.666 208.713 711.023 208.635 710.3C208.799 709.097 209.249 706.249 209.986 701.757C210.557 698.708 211.047 696.101 211.455 693.935C211.944 691.449 212.473 689.123 213.042 686.957C213.53 684.952 214.058 682.947 214.626 680.943C215.112 679.419 215.68 677.615 216.328 675.53C216.896 673.686 217.423 672.122 217.908 670.84C218.394 669.396 218.88 668.114 219.365 666.992C219.85 665.789 220.295 664.747 220.699 663.865C221.104 662.903 221.548 661.982 222.032 661.1C222.436 660.46 222.96 659.538 223.606 658.336C224.01 657.615 224.694 657.055 225.658 656.657C226.622 656.259 228.108 656.103 230.114 656.19C230.836 656.272 231.558 656.475 232.279 656.798C232.36 656.799 232.56 656.879 232.881 657.041C233.282 657.123 233.602 657.244 233.843 657.405C234.163 657.486 234.364 657.607 234.443 657.768C234.523 657.849 234.803 658.371 235.281 659.336C235.521 659.818 235.76 660.301 235.999 660.783C236.558 661.828 237.036 662.833 237.434 663.797C237.833 664.762 238.231 665.766 238.629 666.811C239.107 667.936 239.585 669.222 240.062 670.668C240.698 672.356 241.215 673.882 241.612 675.248C242.169 676.935 242.685 678.703 243.161 680.55C243.717 682.398 244.233 684.326 244.708 686.334C245.263 688.664 245.777 690.832 246.253 692.841C246.727 695.33 247.2 697.82 247.674 700.31C247.989 702.317 248.422 705.007 248.973 708.38C248.973 708.541 248.972 708.741 248.971 708.982C249.051 709.143 249.091 709.304 249.09 709.464ZM234.366 682.449C234.447 682.369 234.407 682.088 234.248 681.606C234.089 681.124 233.81 680.521 233.411 679.798C233.093 678.994 232.694 678.15 232.215 677.265C231.817 676.381 231.338 675.336 230.78 674.131C230.223 672.845 229.705 671.599 229.227 670.393C228.499 672.237 227.53 674.161 226.319 676.163C225.19 678.086 224.302 679.568 223.657 680.61C223.011 681.651 222.728 682.252 222.808 682.413C222.888 682.494 222.968 682.534 223.049 682.534C224.092 682.618 226.179 682.664 229.309 682.674C230.513 682.678 231.837 682.642 233.282 682.566C233.362 682.566 233.483 682.567 233.643 682.567C233.804 682.568 233.924 682.568 234.005 682.568C234.165 682.489 234.286 682.449 234.366 682.449Z" fill="#F8F8F8"/>
<path d="M292.671 665.776C290.426 665.127 288.219 665.08 286.05 665.635C283.881 666.19 281.871 667.147 280.021 668.506C278.251 669.785 276.681 671.305 275.311 673.066C271.925 677.791 269.54 683.282 268.156 689.538C266.853 695.714 266.834 701.574 268.101 707.116C268.735 709.927 269.77 712.499 271.207 714.831C272.645 717.163 274.525 719.135 276.848 720.748C279.251 722.28 281.857 723.091 284.666 723.18C286.832 723.267 289.001 722.672 291.173 721.395C293.424 720.118 295.314 718.759 296.844 717.319C298.454 715.799 300.344 714.521 302.515 713.484C304.766 712.368 306.974 712.053 309.139 712.542C310.182 712.706 310.903 713.27 311.301 714.234C311.699 715.198 311.777 716.162 311.533 717.124C311.046 718.728 309.715 720.931 307.539 723.734C305.605 726.296 303.15 728.415 300.175 730.091C297.2 731.687 294.067 732.681 290.775 733.072C287.001 733.622 282.948 733.569 278.615 732.913C273.642 732.095 269.353 730.316 265.75 727.576C262.147 724.755 259.468 721.376 257.715 717.437C255.961 713.499 254.811 709.201 254.264 704.544C253.717 699.887 253.771 695.272 254.428 690.699C255.084 686.126 256.181 681.755 257.719 677.586C260.147 671.413 263.815 666.127 268.725 661.728C273.716 657.249 279.383 654.377 285.728 653.113C292.234 651.769 298.731 653.074 305.22 657.027C308.905 659.286 311.385 661.862 312.66 664.756C312.979 665.559 313.257 666.523 313.494 667.648C313.731 668.772 313.728 669.936 313.483 671.139C313.239 672.262 312.674 673.023 311.79 673.421C309.861 674.218 306.613 673.365 302.046 670.862C301.566 670.54 300.644 669.975 299.282 669.168C297.921 668.281 296.719 667.595 295.677 667.11C294.635 666.545 293.633 666.101 292.671 665.776Z" fill="#F8F8F8"/>
<path d="M368.265 664.328C368.259 666.013 368.292 668.502 368.362 671.793C368.512 675.004 368.585 677.412 368.58 679.017C368.489 682.468 368.309 688.688 368.04 697.677C367.771 706.666 367.629 713.568 367.614 718.384C367.612 718.945 367.649 719.909 367.725 721.273C367.801 722.638 367.878 723.602 367.957 724.164C368.253 732.271 366.394 736.359 362.38 736.427C361.818 736.505 361.176 736.543 360.454 736.541C358.607 736.535 357.084 736.049 355.883 735.082C353.801 733.47 352.766 730.698 352.779 726.765C352.782 725.641 352.787 724.036 352.794 721.949C352.801 719.782 352.805 718.377 352.807 717.735C352.808 717.575 352.892 716.291 353.06 713.883C353.228 711.396 353.194 709.429 352.958 707.984C352.802 706.538 352.284 705.413 351.404 704.608C350.923 704.205 350.242 703.922 349.359 703.758C348.558 703.515 347.836 703.392 347.193 703.39C346.551 703.388 345.668 703.426 344.544 703.503C343.501 703.58 342.818 703.618 342.497 703.617C342.257 703.616 341.895 703.615 341.414 703.613C340.932 703.612 340.491 703.61 340.089 703.609C339.769 703.528 339.367 703.526 338.885 703.605C338.404 703.604 337.962 703.642 337.561 703.721C337.24 703.72 336.838 703.759 336.356 703.838C335.955 703.917 335.553 704.036 335.151 704.196C334.83 704.355 334.508 704.555 334.186 704.794C333.865 704.954 333.583 705.194 333.341 705.514C332.938 705.995 332.655 706.636 332.492 707.438C332.329 708.24 332.207 708.882 332.125 709.363C332.124 709.845 332.121 710.647 332.118 711.771C332.195 712.815 332.233 713.417 332.232 713.577C332.227 715.263 332.22 717.631 332.21 720.681C332.201 723.731 332.194 725.737 332.191 726.7C332.179 730.633 331.127 733.399 329.035 734.998C327.748 735.957 326.221 736.434 324.455 736.428C323.733 736.426 323.051 736.384 322.409 736.301C321.286 736.218 320.324 735.853 319.523 735.209C318.723 734.484 318.163 733.639 317.845 732.675C317.527 731.711 317.29 730.506 317.134 729.061C317.059 727.536 317.023 726.292 317.026 725.328C317.029 724.285 317.073 723.041 317.158 721.597C317.323 720.152 317.406 719.23 317.407 718.828C317.491 717.785 317.5 714.735 317.436 709.678C317.452 704.541 317.462 701.411 317.465 700.287C317.466 700.127 317.46 689.05 317.449 667.058C317.451 666.416 317.414 665.533 317.337 664.409C317.26 663.205 317.223 662.242 317.226 661.519C317.228 660.797 317.271 659.954 317.354 658.991C317.437 658.028 317.6 657.226 317.843 656.585C318.086 655.943 318.449 655.343 318.932 654.782C319.416 654.142 320.059 653.702 320.863 653.464C321.747 653.146 322.791 652.988 323.995 652.992C323.995 652.992 324.035 652.992 324.115 652.993C324.195 652.993 324.316 652.993 324.476 652.994C324.637 652.914 324.798 652.874 324.958 652.875C325.199 652.876 325.44 652.876 325.68 652.877C325.921 652.878 326.162 652.919 326.402 653C326.724 653.001 327.004 653.042 327.245 653.123C327.566 653.124 327.887 653.165 328.208 653.246C328.528 653.328 328.809 653.449 329.049 653.61C329.37 653.772 329.69 653.973 330.011 654.215C330.331 654.377 330.611 654.578 330.851 654.82C332.532 656.51 333.366 659.041 333.356 662.412C333.343 666.506 333.246 671.803 333.065 678.304C333.065 678.464 332.94 679.748 332.692 682.155C332.444 684.562 332.398 686.489 332.554 687.934C332.79 689.379 333.268 690.505 333.988 691.31C334.468 691.793 335.109 692.156 335.911 692.399C336.793 692.562 337.515 692.685 338.077 692.767C338.719 692.769 339.602 692.732 340.726 692.655C341.85 692.578 342.532 692.54 342.773 692.541C343.094 692.542 343.736 692.584 344.699 692.667C345.662 692.67 346.344 692.673 346.745 692.674C347.227 692.595 347.83 692.517 348.552 692.439C349.275 692.28 349.878 692.042 350.36 691.722C350.843 691.322 351.246 690.842 351.569 690.281C352.053 689.56 352.336 688.758 352.419 687.876C352.502 686.993 352.466 685.789 352.31 684.264C352.235 682.738 352.197 681.895 352.198 681.735C352.201 680.691 352.17 677.842 352.104 673.186C352.038 668.531 352.009 664.959 352.017 662.471C352.028 659.1 352.838 656.574 354.449 654.894C354.771 654.654 355.092 654.414 355.414 654.174C355.816 653.935 356.178 653.775 356.499 653.696C356.821 653.537 357.142 653.417 357.464 653.338C357.785 653.178 358.106 653.099 358.427 653.1C358.749 653.021 359.03 652.982 359.271 652.982C359.592 652.983 359.873 652.984 360.113 652.985C360.354 652.986 360.555 653.027 360.715 653.107C360.956 653.108 361.116 653.109 361.197 653.109C361.357 653.109 361.437 653.11 361.437 653.11C362.802 653.114 363.925 653.358 364.806 653.843C365.768 654.247 366.449 654.731 366.848 655.294C367.328 655.857 367.687 656.741 367.924 657.946C368.161 659.07 368.278 660.034 368.276 660.836C368.273 661.559 368.27 662.723 368.265 664.328Z" fill="#F8F8F8"/>
<path d="M380.788 681.704C386.586 675.702 393.498 672.714 401.524 672.739C409.631 672.765 416.524 675.796 422.204 681.834C427.884 687.871 430.71 695.144 430.684 703.652C430.657 712.08 427.785 719.295 422.068 725.296C416.35 731.298 409.438 734.287 401.331 734.261C393.305 734.236 386.412 731.204 380.652 725.167C374.972 719.129 372.145 711.896 372.172 703.469C372.198 694.961 375.07 687.706 380.788 681.704ZM401.368 722.583C406.344 722.598 410.604 720.766 414.147 717.085C417.771 713.324 419.591 708.835 419.607 703.617C419.618 700.166 418.785 696.993 417.109 694.098C415.513 691.124 413.313 688.789 410.509 687.095C407.785 685.401 404.778 684.548 401.487 684.538C398.196 684.528 395.144 685.361 392.329 687.038C389.595 688.715 387.421 691.035 385.806 694C384.192 696.885 383.379 700.053 383.368 703.504C383.36 706.072 383.794 708.562 384.669 710.972C385.625 713.303 386.903 715.314 388.503 717.004C390.183 718.695 392.105 720.066 394.269 721.116C396.514 722.086 398.88 722.575 401.368 722.583Z" fill="#F8F8F8"/>
<path d="M394.853 667.727C393.89 667.724 392.928 667.28 391.968 666.394C391.007 665.508 390.528 664.584 390.532 663.62C390.533 663.139 390.615 662.658 390.777 662.176C390.939 661.695 391.221 661.215 391.624 660.734C392.027 660.254 392.349 659.894 392.591 659.654C392.832 659.334 393.235 658.893 393.799 658.333C394.443 657.773 394.845 657.454 395.006 657.374C397.421 654.974 399.632 653.857 401.638 654.024C403.804 654.271 406.208 655.764 408.848 658.501C409.088 658.742 409.408 659.105 409.808 659.587C411.488 661.358 412.286 662.806 412.202 663.929C412.199 664.812 411.715 665.693 410.749 666.573C409.783 667.453 408.818 667.892 407.855 667.889C406.972 667.886 406.251 667.563 405.691 666.919C405.131 666.195 404.733 665.431 404.494 664.627C404.256 663.744 403.857 662.94 403.298 662.216C402.819 661.412 402.218 660.968 401.496 660.886C400.774 660.803 400.131 661.122 399.567 661.843C399.083 662.483 398.679 663.245 398.356 664.127C398.032 665.008 397.548 665.81 396.903 666.53C396.339 667.251 395.656 667.65 394.853 667.727Z" fill="#C8F05B"/>
</g>
<defs>
<clipPath id="clip0_38_190">
<rect width="585" height="1266" fill="white"/>
</clipPath>
</defs>
</svg>
