<svg width="196" height="150" viewBox="0 0 196 150" fill="none" xmlns="http://www.w3.org/2000/svg">
<path d="M134.98 146.285C131.043 146.05 127.227 145.908 123.443 145.403C121.122 145.094 119.166 144.095 117.729 142.171C115.832 139.63 114.26 136.879 112.546 134.22C111.913 133.237 111.234 132.885 109.993 132.977C105.071 133.341 100.133 133.303 95.198 133.209C94.8604 133.202 94.5246 133.104 94.2228 133.054C93.9546 132.503 94.3111 132.166 94.5026 131.802C100.797 119.835 107.097 107.87 113.395 95.9048C113.577 95.5598 113.753 95.2111 113.916 94.8572C114.959 92.5999 114.65 91.3386 112.496 90.0479C109.483 88.2414 106.245 86.8676 103.042 85.4371C100.598 84.3453 98.1286 83.309 95.467 82.1602C96.3396 81.028 97.1118 80.0114 97.8993 79.0069C103.569 71.775 109.248 64.55 114.903 57.3066C115.35 56.7339 115.728 56.0723 115.987 55.3943C116.756 53.3784 116.226 52.1684 114.212 51.3772C110.669 49.9858 106.87 49.4225 103.338 47.9531C99.784 46.4745 96.1485 45.1907 92.5393 43.8469C91.6402 43.5122 91.5151 43.1271 91.9461 42.2102C96.6446 32.2135 101.286 22.19 105.946 12.175C106.129 11.7823 106.339 11.4023 106.53 11.0135C107.766 8.50088 107.769 8.47055 110.614 8.86276C114.771 9.43574 118.894 10.2186 122.955 11.2607C124.064 11.5454 124.795 11.2204 125.57 10.6356C128.64 8.3181 131.999 6.53111 135.611 5.23481C139.258 3.92613 142.998 3.06061 146.91 3.25802C150.74 3.45127 152.97 5.81366 152.92 9.63535C152.869 13.5028 152.002 17.2794 151.576 21.1055C151.369 22.952 151.089 24.7912 150.795 26.6261C150.66 27.4703 151.165 27.8846 151.707 28.3433C159.247 34.7246 165.203 42.3292 168.731 51.585C169.71 54.1528 171.21 55.3592 173.599 55.933C176.413 56.6089 179.221 57.2834 182.111 57.6327C185.318 58.0203 188.305 58.9723 190.089 62.0402C191.088 63.7569 191.358 65.6337 191.253 67.5497C190.84 75.0853 190.391 82.6191 189.913 90.1509C189.59 95.233 187.544 97.5545 182.489 98.4902C177.938 99.3326 173.36 100.022 168.891 101.277C166.888 101.839 165.469 102.854 164.325 104.734C160.959 110.263 156.494 114.863 151.399 118.848C150 119.943 148.587 121.022 147.157 122.075C146.716 122.399 146.584 122.748 146.627 123.285C147.018 128.113 146.843 132.96 147.064 137.793C147.338 143.764 143.225 146.683 139.137 146.479C137.795 146.411 136.453 146.354 134.98 146.285ZM143.44 51.4889C140.214 52.0283 138.715 55.1292 138.8 57.1281C138.918 59.8725 140.959 62.1788 143.584 62.4822C145.78 62.736 147.624 61.9605 148.879 60.1251C150.165 58.2441 150.225 56.1937 149.108 54.2248C147.924 52.1373 146.008 51.3117 143.44 51.4889Z" fill="#FA483A"/>
<path d="M6.49429 54.5116C8.89849 50.8543 12.2152 49.0621 16.4762 49.5862C20.706 50.1065 23.6321 52.4854 25.0003 56.6008C25.5627 58.2925 25.3258 60.0282 25.1347 61.7478C24.8089 64.6811 23.9753 67.4985 23.0028 70.3306C24.2846 70.9389 25.5574 70.7015 26.7777 70.7772C27.3005 70.8096 27.2248 70.2424 27.2378 69.863C27.3731 65.9285 27.6052 62.0036 28.2295 58.1089C29.5624 49.7925 32.4924 42.1448 37.7065 35.4593C47.107 23.4059 59.508 15.8819 73.9753 11.491C77.8377 10.3187 85.7214 9.03867 88.9625 8.5381C89.6567 8.4309 90.2353 9.05733 90.0793 9.74214L83.038 40.653C82.3866 43.5122 82.1214 46.8148 84.2894 48.7893C84.875 49.3226 85.5981 49.7739 86.484 50.0234C92.9865 51.855 99.5198 53.5651 106.145 54.9015C106.394 54.9517 106.674 54.9135 106.868 55.2026C106.998 55.7481 106.61 56.1514 106.352 56.5811C101.508 64.6419 96.6542 72.6973 91.8062 80.7559C91.5386 81.2008 91.2668 81.6484 91.0557 82.1211C90.2047 84.0269 90.6732 85.392 92.5329 86.3263C95.9638 88.0499 99.707 88.8868 103.329 90.0649C105.718 90.8419 108.135 91.5299 110.537 92.2692C110.944 92.3948 111.389 92.4603 111.809 92.921C111.498 93.8106 111.179 94.7814 110.82 95.737C106.349 107.622 101.86 119.5 97.4199 131.397C96.9757 132.587 96.4452 133.021 95.0753 132.965C90.7977 132.79 86.5156 132.75 82.2594 132.217C81.5581 132.129 81.1548 132.373 80.9174 133.09C80.0016 135.86 78.5575 138.391 77.2534 140.984C75.7159 144.041 73.1787 145.597 69.7975 145.835C66.4658 146.07 63.1352 146.325 59.8013 146.526C55.491 146.785 51.889 144.474 50.6205 140.544C50.2126 139.281 50.08 137.918 49.9074 136.59C49.139 130.677 48.0972 124.809 47.0807 118.936C46.9404 118.125 46.447 117.551 45.8667 116.996C41.1111 112.45 36.8306 107.526 33.7757 101.638C31.2265 96.7237 29.4554 91.5637 28.5714 86.0817C28.3223 84.5371 28.2141 82.9911 28.0241 81.4478C27.822 79.8064 27.3911 79.4347 25.7396 79.5331C23.8589 79.6451 22.0284 79.343 20.2209 78.9014C19.3016 78.6768 18.7631 78.8849 18.1706 79.6876C16.5962 81.8207 14.8429 83.8306 12.2955 84.8588C10.5385 85.5679 8.8564 85.2657 7.45893 83.9825C6.07886 82.7152 5.8004 81.1122 6.32845 79.3356C6.5768 78.5 7.13248 77.9247 7.77754 77.3888C8.73772 76.5912 9.79579 75.8867 10.4815 74.7247C4.28219 68.9865 2.28388 62.3971 6.49429 54.5116ZM16.2031 63.5729C16.4514 62.4349 16.6997 61.2974 16.6449 60.1201C16.6144 59.4661 16.3907 58.9126 15.7396 58.6818C15.1039 58.4565 14.498 58.6965 14.0731 59.1406C12.1189 61.1829 12.6716 65.4444 15.2384 66.5865C15.7046 65.7017 15.9296 64.7385 16.2031 63.5729Z" fill="#FA483A"/>
</svg>
