<svg width="53" height="40" viewBox="0 0 53 40" fill="none" xmlns="http://www.w3.org/2000/svg">
<path d="M36.05 39.0093C35 38.9468 33.9825 38.9087 32.9732 38.7743C32.3544 38.6918 31.8327 38.4252 31.4497 37.9123C30.9437 37.2348 30.5244 36.5011 30.0675 35.7919C29.8986 35.5297 29.7175 35.4361 29.3867 35.4606C28.074 35.5576 26.7572 35.5475 25.4413 35.5223C25.3513 35.5206 25.2617 35.4943 25.1813 35.481C25.1097 35.3341 25.2048 35.2442 25.2559 35.1472C26.9344 31.9559 28.6145 28.7654 30.2939 25.5746C30.3424 25.4826 30.3892 25.3896 30.4328 25.2953C30.711 24.6933 30.6284 24.357 30.0542 24.0128C29.2505 23.531 28.3871 23.1647 27.533 22.7832C26.8812 22.4921 26.2228 22.2157 25.513 21.9094C25.7457 21.6075 25.9516 21.3364 26.1617 21.0685C27.6736 19.14 29.1879 17.2133 30.696 15.2818C30.8152 15.129 30.9161 14.9526 30.9851 14.7718C31.1902 14.2342 31.0487 13.9116 30.5116 13.7006C29.5669 13.3295 28.5537 13.1793 27.612 12.7875C26.6642 12.3932 25.6948 12.0509 24.7323 11.6925C24.4926 11.6033 24.4592 11.5006 24.5741 11.256C25.8271 8.59026 27.0649 5.91735 28.3074 3.24667C28.3562 3.14195 28.4121 3.04063 28.4631 2.93693C28.7927 2.2669 28.7936 2.25882 29.5523 2.36341C30.6607 2.5162 31.7601 2.72497 32.8431 3.00286C33.139 3.07879 33.3339 2.9921 33.5405 2.83617C34.359 2.21816 35.255 1.74163 36.2182 1.39595C37.1906 1.04697 38.188 0.816165 39.2313 0.86881C40.2525 0.920343 40.8472 1.55031 40.8337 2.56943C40.8201 3.60075 40.5892 4.60784 40.4753 5.62815C40.4204 6.12052 40.3456 6.61099 40.2671 7.1003C40.231 7.32543 40.3657 7.43589 40.5103 7.55822C42.521 9.25991 44.1092 11.2878 45.0502 13.756C45.3113 14.4408 45.7112 14.7625 46.3483 14.9155C47.0987 15.0957 47.8474 15.2756 48.618 15.3687C49.4733 15.4721 50.2698 15.7259 50.7457 16.5441C51.012 17.0018 51.0838 17.5023 51.0559 18.0133C50.9459 20.0228 50.8261 22.0318 50.6986 24.0402C50.6126 25.3955 50.067 26.0145 48.719 26.264C47.5052 26.4887 46.2844 26.6724 45.0927 27.0071C44.5586 27.1571 44.1802 27.4277 43.8751 27.929C42.9777 29.4034 41.7868 30.6302 40.4284 31.6928C40.0552 31.9847 39.6785 32.2724 39.2969 32.5532C39.1795 32.6397 39.1442 32.7328 39.1558 32.876C39.2599 34.1636 39.2133 35.4561 39.2723 36.7448C39.3452 38.337 38.2485 39.1156 37.1584 39.061C36.8005 39.0431 36.4425 39.0278 36.05 39.0093ZM38.3057 13.7304C37.4456 13.8742 37.0459 14.7011 37.0686 15.2342C37.0999 15.966 37.6441 16.581 38.3442 16.6619C38.93 16.7296 39.4217 16.5228 39.7563 16.0334C40.0992 15.5318 40.1152 14.985 39.8174 14.46C39.5017 13.9033 38.9907 13.6831 38.3057 13.7304Z" fill="white"/>
<path d="M1.75951 14.5364C2.40063 13.5611 3.28508 13.0832 4.42135 13.223C5.5493 13.3617 6.32959 13.9961 6.69444 15.0935C6.84441 15.5446 6.78124 16.0075 6.7303 16.4661C6.64341 17.2483 6.42111 17.9996 6.16178 18.7548C6.50359 18.917 6.84301 18.8537 7.16843 18.8739C7.30785 18.8825 7.28765 18.7313 7.29113 18.6301C7.3272 17.5809 7.38909 16.5343 7.55556 15.4957C7.91102 13.278 8.69235 11.2386 10.0828 9.45579C12.5896 6.24156 15.8965 4.23515 19.7545 3.06424C21.0701 2.66494 22.4067 2.37576 23.7756 2.21875C24.2321 2.16639 24.1344 2.21875 24.1344 2.21875L22.1267 11.5353C22.1267 11.5353 22.1679 13.0798 23.0901 13.3396C24.8241 13.828 26.5663 14.284 28.3331 14.6404C28.3995 14.6538 28.474 14.6436 28.5258 14.7207C28.5605 14.8661 28.4571 14.9737 28.3882 15.0883C27.0964 17.2378 25.8022 19.3859 24.5093 21.5349C24.438 21.6535 24.3655 21.7729 24.3092 21.8989C24.0823 22.4072 24.2072 22.7712 24.7031 23.0203C25.618 23.48 26.6162 23.7031 27.5821 24.0173C28.2191 24.2245 28.8638 24.4079 29.5042 24.6051C29.6129 24.6386 29.7314 24.6561 29.8435 24.7789C29.7604 25.0161 29.6754 25.275 29.5796 25.5298C28.3876 28.6992 27.1903 31.8667 26.0063 35.0391C25.8879 35.3565 25.7464 35.4723 25.3811 35.4573C24.2404 35.4105 23.0985 35.3999 21.9635 35.2579C21.7765 35.2345 21.669 35.2993 21.6057 35.4907C21.3615 36.2292 20.9764 36.9043 20.6286 37.5957C20.2186 38.4108 19.542 38.8258 18.6404 38.8893C17.7519 38.952 16.8638 39.02 15.9747 39.0735C14.8253 39.1426 13.8648 38.5264 13.5265 37.4785C13.4177 37.1415 13.3824 36.7782 13.3364 36.424C13.1314 34.8472 12.8536 33.2823 12.5826 31.7162C12.5451 31.4999 12.4136 31.3469 12.2588 31.1989C10.9907 29.9865 9.84919 28.6737 9.03456 27.1034C8.35476 25.793 7.88248 24.417 7.64674 22.9551C7.58032 22.5432 7.55147 22.1309 7.5008 21.7194C7.44691 21.2817 7.33198 21.1826 6.8916 21.2088C6.39007 21.2387 5.90194 21.1581 5.41993 21.0403C5.1748 20.9805 5.03119 21.0359 4.8732 21.25C4.45337 21.8188 3.9858 22.3548 3.3065 22.629C2.83798 22.8181 2.38941 22.7375 2.01675 22.3953C1.64873 22.0574 1.57448 21.6299 1.71529 21.1561C1.78152 20.9333 1.9297 20.7799 2.10171 20.637C2.35776 20.4243 2.63991 20.2364 2.82277 19.9266C1.16962 18.3964 0.636738 16.6392 1.75951 14.5364ZM4.34852 16.9528C4.41473 16.6493 4.48097 16.346 4.46633 16.032C4.4582 15.8576 4.39855 15.71 4.22493 15.6485C4.05542 15.5884 3.89384 15.6524 3.78054 15.7708C3.25941 16.3154 3.40679 17.4518 4.09127 17.7564C4.21559 17.5204 4.27558 17.2636 4.34852 16.9528Z" fill="white"/>
<path d="M27.8478 0.832886L23.5098 10.7236L25.3838 0.832886H27.8478Z" fill="#90DC6F"/>
</svg>
