<svg width="234" height="204" viewBox="0 0 234 204" fill="none" xmlns="http://www.w3.org/2000/svg">
<path d="M141.691 98.0065C139.066 97.8503 136.522 97.7552 133.999 97.419C132.452 97.2128 131.148 96.5464 130.19 95.2642C128.925 93.5703 127.877 91.736 126.735 89.9631C126.312 89.3077 125.86 89.0736 125.033 89.1347C121.751 89.3774 118.459 89.3522 115.169 89.2891C114.944 89.2848 114.72 89.2191 114.519 89.1857C114.34 88.8187 114.578 88.5939 114.706 88.3512C118.902 80.3731 123.102 72.3969 127.301 64.4199C127.422 64.1899 127.539 63.9574 127.648 63.7215C128.343 62.2166 128.137 61.3757 126.701 60.5152C124.692 59.3109 122.534 58.3951 120.398 57.4414C118.769 56.7136 117.123 56.0227 115.348 55.2568C115.93 54.502 116.445 53.8243 116.97 53.1546C120.75 48.3333 124.536 43.5167 128.306 38.6877C128.604 38.3059 128.856 37.8649 129.029 37.4129C129.541 36.069 129.188 35.2623 127.845 34.7348C125.483 33.8072 122.95 33.4317 120.596 32.4521C118.227 31.4663 115.803 30.6105 113.397 29.7146C112.797 29.4915 112.714 29.2348 113.001 28.6235C116.134 21.959 119.228 15.2767 122.334 8.60002C122.456 8.33821 122.596 8.0849 122.724 7.82567C123.548 6.1506 123.55 6.13038 125.447 6.39185C128.218 6.77384 130.966 7.29577 133.674 7.99049C134.413 8.18031 134.901 7.9636 135.417 7.57377C137.464 6.02875 139.703 4.83742 142.111 3.97322C144.542 3.10077 147.036 2.52375 149.644 2.65536C152.197 2.78419 153.684 4.35912 153.65 6.90691C153.616 9.48521 153.039 12.0029 152.754 14.5537C152.617 15.7846 152.43 17.0108 152.234 18.2341C152.144 18.7969 152.48 19.0731 152.842 19.3789C157.868 23.6331 161.839 28.7028 164.191 34.8733C164.844 36.5852 165.844 37.3895 167.437 37.772C169.313 38.2226 171.184 38.6723 173.111 38.9051C175.249 39.1636 177.24 39.7982 178.43 41.8435C179.096 42.988 179.276 44.2391 179.206 45.5165C178.931 50.5402 178.631 55.5628 178.313 60.5839C178.097 63.972 176.733 65.5197 173.363 66.1435C170.329 66.7051 167.277 67.1644 164.298 68.001C162.962 68.376 162.017 69.0525 161.254 70.3059C159.01 73.9919 156.033 77.0588 152.637 79.7154C151.704 80.4452 150.762 81.1644 149.808 81.8664C149.515 82.0825 149.427 82.3154 149.455 82.6733C149.716 85.8922 149.599 89.1235 149.747 92.3453C149.929 96.3259 147.187 98.2723 144.462 98.1358C143.567 98.091 142.672 98.0529 141.691 98.0065ZM147.33 34.8093C145.18 35.1689 144.181 37.2361 144.237 38.5687C144.316 40.3983 145.676 41.9359 147.426 42.1381C148.891 42.3073 150.12 41.7903 150.957 40.5667C151.814 39.3127 151.854 37.9458 151.109 36.6332C150.32 35.2416 149.043 34.6911 147.33 34.8093Z" fill="#F8F8F8"/>
<path d="M55.9643 36.8244C57.5671 34.3862 59.7782 33.1914 62.6189 33.5408C65.4388 33.8876 67.3895 35.4736 68.3017 38.2172C68.6766 39.345 68.5186 40.5021 68.3913 41.6485C68.1741 43.6041 67.6183 45.4823 66.97 47.3704C67.8245 47.7759 68.6731 47.6177 69.4866 47.6681C69.8352 47.6897 69.7847 47.3116 69.7934 47.0587C69.8835 44.4356 70.0383 41.8191 70.4544 39.2226C71.3431 33.6783 73.2964 28.5799 76.7725 24.1228C83.0395 16.0873 91.3068 11.0713 100.952 8.14398C104.241 7.14574 107.582 6.42278 111.005 6.03026C112.146 5.89936 111.902 6.03026 111.902 6.03026L106.882 29.3217C106.882 29.3217 106.985 33.1829 109.291 33.8323C113.626 35.0533 117.981 36.1934 122.398 37.0843C122.564 37.1178 122.751 37.0923 122.88 37.2851C122.967 37.6487 122.708 37.9176 122.536 38.204C119.307 43.5779 116.071 48.9482 112.839 54.3206C112.661 54.6172 112.479 54.9156 112.339 55.2307C111.771 56.5013 112.084 57.4113 113.323 58.0342C115.611 59.1833 118.106 59.7412 120.521 60.5266C122.113 61.0446 123.725 61.5032 125.326 61.9961C125.598 62.0798 125.894 62.1235 126.174 62.4307C125.967 63.0237 125.754 63.671 125.515 64.308C122.534 72.2315 119.541 80.1501 116.581 88.0811C116.285 88.8746 115.932 89.1641 115.018 89.1267C112.167 89.0097 109.312 88.9832 106.474 88.6281C106.007 88.5696 105.738 88.7317 105.58 89.2102C104.969 91.0564 104.006 92.7442 103.137 94.4725C102.112 96.5104 100.421 97.5479 98.1665 97.7067C95.9453 97.8633 93.7249 98.0334 91.5024 98.1671C88.6288 98.34 86.2275 96.7995 85.3818 94.1795C85.1099 93.3371 85.0215 92.429 84.9064 91.5434C84.3942 87.6014 83.6996 83.6891 83.022 79.7739C82.9284 79.2332 82.5995 78.8506 82.2126 78.4807C79.0422 75.4497 76.1885 72.1676 74.1519 68.2418C72.4525 64.9658 71.2718 61.5258 70.6824 57.8711C70.5163 56.8414 70.4442 55.8107 70.3176 54.7819C70.1828 53.6876 69.8955 53.4398 68.7945 53.5054C67.5407 53.5801 66.3204 53.3787 65.1154 53.0843C64.5026 52.9345 64.1435 53.0732 63.7486 53.6084C62.699 55.0305 61.5301 56.3704 59.8318 57.0558C58.6605 57.5286 57.5391 57.3271 56.6074 56.4717C55.6874 55.6268 55.5017 54.5581 55.8538 53.3737C56.0193 52.8167 56.3898 52.4332 56.8198 52.0759C57.46 51.5441 58.1653 51.0745 58.6225 50.2998C54.4896 46.4743 53.1574 42.0814 55.9643 36.8244ZM62.4369 42.8653C62.6024 42.1066 62.768 41.3483 62.7314 40.5634C62.7111 40.1274 62.5619 39.7584 62.1279 39.6046C61.7041 39.4544 61.3001 39.6143 61.0169 39.9104C59.7141 41.2719 60.0825 44.1129 61.7937 44.8743C62.1045 44.2844 62.2545 43.6423 62.4369 42.8653Z" fill="#F8F8F8"/>
<path d="M76.7157 189.117C76.8516 189.254 76.9876 189.391 77.1235 189.527C77.6663 190.416 77.8676 191.439 77.7276 192.598C77.656 193.689 77.3461 194.676 76.7978 195.561C75.2221 197.875 72.9319 199.743 69.927 201.165C65.8295 203.13 60.5083 203.864 53.9635 203.366C42.0331 202.442 29.4755 194.902 16.2909 180.745C15.8828 180.402 15.5085 180.163 15.168 180.025C14.8957 179.888 14.6569 179.921 14.4517 180.125C14.2467 180.261 14.0757 180.431 13.9386 180.635C13.8016 180.839 13.6642 181.18 13.5263 181.657C13.4568 182.066 13.3876 182.406 13.3185 182.679C13.2495 182.951 13.2143 183.292 13.213 183.701C12.9349 185.405 12.8957 187.042 13.0954 188.611C13.295 190.18 13.2556 191.884 12.9771 193.725C12.6987 195.497 12.0804 196.961 11.1221 198.117C9.75386 199.545 8.08149 200.085 6.10505 199.738C4.12861 199.391 2.66573 198.363 1.71641 196.656C1.30941 195.972 0.970806 195.221 0.70061 194.402C0.498604 193.583 0.33048 192.833 0.196237 192.15C0.130397 191.4 0.0649849 190.513 0 189.49C0.00320515 188.467 0.00576926 187.649 0.00769235 187.035C0.00982912 186.354 0.0465951 185.501 0.11799 184.479C0.189599 183.388 0.226258 182.57 0.227968 182.024C0.231814 180.797 0.308017 178.24 0.456576 174.353C0.605136 170.467 0.682728 167.467 0.689352 165.353C0.727813 153.079 0.72171 144.146 0.671041 138.554C0.619945 133.099 1.89311 129.386 4.49052 127.417C7.01975 125.447 10.5346 124.469 15.0352 124.483C20.2176 124.5 24.6806 125.605 28.4243 127.799C33.1886 130.678 36.6186 135.018 38.7143 140.821C40.8103 146.556 41.3726 152.081 40.4013 157.397C39.5687 161.963 36.9983 166.183 32.6901 170.056L32.3826 170.26C32.0406 170.6 31.4931 171.246 30.74 172.198C29.9871 173.082 29.5422 173.626 29.4052 173.83C29.1318 174.034 29.0965 174.409 29.2993 174.955C29.5024 175.433 29.6716 175.843 29.8069 176.184C29.9422 176.526 30.2476 177.004 30.723 177.619C31.1986 178.166 31.6063 178.645 31.9459 179.055C32.2858 179.397 32.7276 179.876 33.2712 180.491C33.8832 181.039 34.3251 181.449 34.597 181.723C34.8689 181.996 35.2429 182.338 35.7189 182.749C36.195 183.16 36.467 183.399 36.535 183.468C40.0026 186.683 43.8471 189.321 48.0685 191.38C55.5583 194.949 61.9686 194.833 67.2994 191.031C68.2562 190.352 68.9738 189.843 69.4522 189.503C69.9987 189.164 70.75 188.791 71.706 188.385C72.7303 187.911 73.6514 187.744 74.4693 187.882C75.2871 188.021 76.0359 188.433 76.7157 189.117ZM22.2849 161.125C23.3777 160.582 24.3688 159.836 25.2583 158.884C27.0365 157.184 28.2703 155.177 28.9594 152.86C29.6488 150.476 29.7922 148.226 29.3897 146.111C28.9872 143.996 28.1403 142.254 26.849 140.886C25.3537 139.313 23.8227 138.251 22.2561 137.701C21.3704 137.425 20.4162 137.286 19.3934 137.283C18.6433 137.281 17.8248 137.346 16.9379 137.48C16.8015 137.479 16.5968 137.513 16.3239 137.58C14.6185 137.779 13.5944 138.151 13.2518 138.696C13.1834 138.764 13.115 138.832 13.0466 138.9C12.9754 139.854 12.971 141.252 13.0334 143.093C13.0995 143.775 13.1319 144.321 13.1306 144.73C13.1907 147.322 13.2157 150.22 13.2056 153.425C13.2033 154.175 13.1657 155.3 13.0928 156.8C12.9495 158.981 12.9103 160.618 12.9751 161.709C12.9738 162.118 13.1774 162.426 13.5859 162.632C13.8585 162.701 14.0629 162.735 14.1993 162.736C14.3357 162.736 14.4721 162.737 14.6084 162.737C15.0176 162.738 15.5632 162.706 16.2453 162.64C16.5865 162.573 16.8253 162.539 16.9616 162.54C18.8714 162.41 20.6458 161.938 22.2849 161.125ZM79.722 176.341C79.722 176.341 79.7217 176.443 79.721 176.647C79.7886 176.852 79.8222 177.023 79.8217 177.159C79.7516 177.773 79.409 178.317 78.7937 178.793C77.9735 179.404 76.3701 179.706 73.9835 179.698C73.1652 179.696 72.6543 179.523 72.4508 179.182C71.7041 178.088 71.0948 176.689 70.6228 174.982C70.4879 174.505 70.3531 173.993 70.2185 173.447C70.1514 173.106 70.0506 172.628 69.9161 172.014C69.7817 171.4 69.6809 170.922 69.6137 170.581C69.5458 170.513 69.4113 169.898 69.2104 168.739C69.0096 167.51 68.8079 166.623 68.605 166.077C68.2673 165.053 67.7921 164.37 67.1794 164.027C66.6352 163.616 65.7493 163.409 64.5219 163.405C64.2492 163.404 63.5332 163.402 62.3739 163.398C61.2147 163.395 60.4987 163.392 60.226 163.391C59.2713 163.389 58.589 163.523 58.179 163.794C57.8372 164.066 57.4602 164.678 57.0481 165.632C56.5671 166.79 55.9806 169.004 55.2884 172.275C55.2198 172.411 55.1509 172.615 55.0819 172.888C55.0813 173.093 55.0466 173.263 54.978 173.399C54.6317 175.103 54.0812 176.704 53.3264 178.201C52.9833 178.882 52.7093 179.29 52.5043 179.426C52.4361 179.426 52.1973 179.459 51.7879 179.526C49.8778 179.793 48.3779 179.686 47.2884 179.205C46.9478 179.068 46.6415 178.896 46.3694 178.691C45.7572 178.212 45.418 177.665 45.3517 177.051C45.4913 176.029 45.8739 173.609 46.4996 169.793C46.985 167.203 47.4011 164.988 47.7478 163.148C48.1636 161.035 48.613 159.059 49.0961 157.219C49.5106 155.516 49.9592 153.813 50.4419 152.109C50.8551 150.815 51.3372 149.282 51.8883 147.511C52.3705 145.944 52.8179 144.616 53.2305 143.526C53.6435 142.3 54.056 141.21 54.4682 140.257C54.8805 139.235 55.2583 138.35 55.6016 137.601C55.9451 136.784 56.3226 136.001 56.7341 135.252C57.0768 134.707 57.5225 133.925 58.0712 132.904C58.4141 132.291 58.9952 131.815 59.8145 131.477C60.6339 131.139 61.8958 131.006 63.6004 131.08C64.2139 131.15 64.827 131.322 65.4399 131.597C65.5081 131.597 65.6783 131.666 65.9507 131.803C66.2914 131.872 66.5638 131.975 66.768 132.112C67.0405 132.182 67.2107 132.284 67.2785 132.421C67.3464 132.489 67.5837 132.933 67.9903 133.753C68.1936 134.163 68.3969 134.572 68.6002 134.982C69.0747 135.87 69.4812 136.724 69.8196 137.543C70.1579 138.363 70.4962 139.216 70.8344 140.104C71.2405 141.059 71.6463 142.152 72.0516 143.38C72.5926 144.814 73.0318 146.111 73.3691 147.271C73.8419 148.705 74.2805 150.207 74.6847 151.776C75.1571 153.346 75.5952 154.984 75.999 156.69C76.4701 158.669 76.9076 160.512 77.3114 162.218C77.7139 164.333 78.1164 166.448 78.5189 168.563C78.7864 170.269 79.1543 172.554 79.6226 175.42C79.6222 175.556 79.6216 175.727 79.621 175.931C79.6888 176.068 79.7224 176.204 79.722 176.341ZM67.2128 153.389C67.2812 153.321 67.2478 153.083 67.1127 152.673C66.9776 152.263 66.7405 151.751 66.4015 151.137C66.1309 150.454 65.7922 149.737 65.3854 148.985C65.0468 148.234 64.6404 147.346 64.1663 146.322C63.6924 145.23 63.2525 144.171 62.8465 143.147C62.2279 144.714 61.4045 146.348 60.3763 148.049C59.4165 149.683 58.6625 150.942 58.1142 151.827C57.5659 152.711 57.3256 153.222 57.3934 153.359C57.4614 153.427 57.5294 153.461 57.5976 153.462C58.4839 153.532 60.2567 153.572 62.9161 153.58C63.939 153.584 65.0642 153.553 66.2919 153.489C66.3601 153.489 66.4623 153.489 66.5987 153.49C66.7351 153.49 66.8374 153.49 66.9056 153.491C67.0422 153.423 67.1446 153.389 67.2128 153.389Z" fill="#F8F8F8"/>
<path d="M116.748 139.225C114.84 138.673 112.965 138.633 111.122 139.105C109.28 139.576 107.572 140.389 106 141.543C104.497 142.63 103.163 143.921 101.999 145.418C99.1224 149.432 97.0962 154.097 95.9203 159.412C94.8128 164.659 94.7972 169.637 95.8735 174.346C96.4115 176.734 97.2911 178.919 98.5124 180.9C99.7336 182.881 101.331 184.557 103.304 185.927C105.346 187.229 107.56 187.918 109.946 187.994C111.787 188.068 113.63 187.562 115.474 186.477C117.387 185.392 118.993 184.237 120.293 183.014C121.661 181.723 123.266 180.637 125.11 179.756C127.023 178.807 128.899 178.54 130.739 178.955C131.625 179.095 132.237 179.574 132.575 180.393C132.914 181.212 132.979 182.031 132.772 182.849C132.359 184.211 131.228 186.083 129.379 188.464C127.736 190.641 125.65 192.441 123.123 193.865C120.595 195.221 117.933 196.065 115.136 196.397C111.93 196.865 108.487 196.82 104.806 196.263C100.58 195.568 96.9369 194.056 93.8756 191.728C90.8145 189.332 88.5391 186.46 87.0494 183.114C85.5597 179.768 84.5824 176.117 84.1174 172.161C83.6525 168.204 83.6989 164.283 84.2566 160.398C84.8143 156.513 85.7465 152.8 87.0532 149.258C89.1154 144.014 92.2321 139.523 96.4034 135.785C100.643 131.98 105.458 129.54 110.849 128.466C116.376 127.324 121.896 128.432 127.409 131.791C130.539 133.71 132.646 135.899 133.73 138.357C134 139.04 134.236 139.859 134.438 140.814C134.64 141.77 134.637 142.758 134.429 143.781C134.221 144.735 133.742 145.381 132.991 145.719C131.352 146.396 128.593 145.672 124.712 143.546C124.304 143.271 123.521 142.792 122.364 142.106C121.207 141.352 120.186 140.77 119.301 140.358C118.416 139.878 117.565 139.5 116.748 139.225Z" fill="#F8F8F8"/>
<path d="M180.97 137.994C180.966 139.426 180.993 141.54 181.053 144.336C181.181 147.064 181.242 149.11 181.238 150.474C181.161 153.405 181.008 158.69 180.779 166.326C180.551 173.963 180.43 179.827 180.417 183.918C180.416 184.396 180.447 185.214 180.512 186.374C180.576 187.533 180.642 188.352 180.709 188.829C180.96 195.717 179.381 199.19 175.971 199.247C175.493 199.314 174.948 199.347 174.334 199.345C172.766 199.34 171.471 198.926 170.451 198.105C168.682 196.736 167.803 194.38 167.814 191.039C167.817 190.084 167.821 188.721 167.827 186.948C167.832 185.106 167.836 183.913 167.838 183.368C167.838 183.231 167.91 182.14 168.053 180.095C168.196 177.982 168.167 176.311 167.966 175.083C167.833 173.855 167.393 172.899 166.645 172.215C166.237 171.872 165.658 171.632 164.909 171.493C164.227 171.287 163.614 171.182 163.069 171.181C162.523 171.179 161.773 171.211 160.818 171.276C159.931 171.341 159.352 171.374 159.079 171.373C158.874 171.372 158.567 171.371 158.158 171.37C157.749 171.369 157.374 171.367 157.033 171.366C156.761 171.297 156.42 171.296 156.01 171.363C155.601 171.362 155.226 171.395 154.885 171.462C154.612 171.461 154.271 171.494 153.862 171.561C153.52 171.628 153.179 171.729 152.838 171.865C152.565 172 152.291 172.17 152.018 172.373C151.745 172.509 151.505 172.713 151.3 172.985C150.958 173.393 150.717 173.938 150.579 174.619C150.44 175.301 150.336 175.846 150.267 176.255C150.266 176.664 150.263 177.346 150.26 178.301C150.326 179.187 150.358 179.699 150.358 179.835C150.353 181.267 150.347 183.279 150.339 185.87C150.331 188.461 150.326 190.166 150.323 190.984C150.313 194.325 149.419 196.675 147.641 198.034C146.548 198.848 145.251 199.253 143.751 199.249C143.137 199.247 142.558 199.211 142.012 199.141C141.058 199.07 140.241 198.76 139.56 198.213C138.88 197.597 138.405 196.879 138.135 196.06C137.865 195.241 137.663 194.218 137.531 192.99C137.467 191.694 137.436 190.637 137.439 189.819C137.441 188.932 137.479 187.875 137.551 186.648C137.691 185.421 137.762 184.637 137.763 184.296C137.834 183.41 137.842 180.819 137.787 176.523C137.801 172.158 137.809 169.499 137.812 168.544C137.813 168.408 137.808 158.998 137.798 140.313C137.8 139.768 137.768 139.018 137.703 138.063C137.638 137.04 137.607 136.221 137.608 135.608C137.61 134.994 137.647 134.278 137.717 133.46C137.788 132.642 137.927 131.96 138.133 131.416C138.339 130.871 138.648 130.36 139.058 129.884C139.469 129.34 140.016 128.967 140.699 128.764C141.449 128.494 142.336 128.36 143.359 128.363C143.359 128.363 143.393 128.363 143.461 128.364C143.53 128.364 143.632 128.364 143.768 128.365C143.905 128.297 144.041 128.263 144.178 128.264C144.382 128.264 144.587 128.265 144.792 128.266C144.996 128.266 145.201 128.301 145.405 128.37C145.678 128.371 145.916 128.405 146.121 128.474C146.393 128.475 146.666 128.51 146.939 128.579C147.211 128.648 147.449 128.751 147.654 128.888C147.926 129.025 148.198 129.197 148.47 129.402C148.743 129.539 148.981 129.711 149.185 129.916C150.612 131.352 151.321 133.503 151.312 136.367C151.302 139.844 151.219 144.345 151.066 149.868C151.065 150.004 150.959 151.095 150.748 153.14C150.537 155.185 150.498 156.821 150.631 158.049C150.832 159.277 151.238 160.233 151.849 160.917C152.257 161.327 152.802 161.636 153.483 161.843C154.233 161.981 154.846 162.086 155.323 162.155C155.869 162.157 156.619 162.125 157.574 162.06C158.529 161.995 159.108 161.962 159.313 161.963C159.586 161.964 160.131 162 160.949 162.071C161.767 162.073 162.347 162.075 162.688 162.076C163.097 162.009 163.609 161.942 164.223 161.876C164.837 161.742 165.349 161.539 165.759 161.267C166.169 160.928 166.511 160.52 166.786 160.043C167.197 159.431 167.438 158.75 167.508 158C167.579 157.25 167.548 156.227 167.415 154.931C167.351 153.635 167.319 152.919 167.32 152.782C167.323 151.896 167.296 149.475 167.24 145.52C167.185 141.565 167.16 138.53 167.167 136.416C167.176 133.552 167.864 131.406 169.233 129.979C169.506 129.775 169.779 129.571 170.053 129.368C170.394 129.164 170.702 129.029 170.975 128.961C171.248 128.826 171.521 128.724 171.794 128.657C172.067 128.521 172.34 128.454 172.613 128.455C172.886 128.388 173.124 128.354 173.329 128.355C173.602 128.356 173.84 128.357 174.045 128.357C174.25 128.358 174.42 128.392 174.556 128.461C174.761 128.462 174.897 128.462 174.965 128.462C175.102 128.463 175.17 128.463 175.17 128.463C176.329 128.467 177.283 128.674 178.032 129.086C178.849 129.429 179.427 129.84 179.767 130.319C180.175 130.797 180.479 131.548 180.68 132.572C180.882 133.527 180.982 134.346 180.98 135.028C180.978 135.641 180.975 136.63 180.97 137.994Z" fill="#F8F8F8"/>
<path d="M191.61 152.756C196.535 147.657 202.408 145.119 209.227 145.14C216.114 145.162 221.97 147.737 226.796 152.867C231.621 157.996 234.023 164.175 234 171.403C233.978 178.563 231.538 184.692 226.68 189.791C221.823 194.891 215.95 197.429 209.063 197.408C202.244 197.386 196.388 194.811 191.494 189.681C186.669 184.552 184.267 178.407 184.289 171.247C184.312 164.019 186.752 157.855 191.61 152.756ZM209.094 187.486C213.322 187.499 216.941 185.942 219.951 182.815C223.03 179.62 224.576 175.806 224.59 171.373C224.599 168.441 223.891 165.745 222.467 163.286C221.111 160.759 219.242 158.775 216.86 157.336C214.546 155.897 211.991 155.173 209.195 155.164C206.4 155.155 203.806 155.863 201.415 157.288C199.092 158.712 197.245 160.684 195.873 163.203C194.501 165.653 193.811 168.345 193.802 171.277C193.795 173.459 194.164 175.574 194.907 177.622C195.719 179.602 196.805 181.31 198.164 182.747C199.592 184.183 201.225 185.347 203.063 186.24C204.97 187.064 206.98 187.479 209.094 187.486Z" fill="#F8F8F8"/>
<path d="M203.559 140.882C202.741 140.88 201.924 140.502 201.108 139.749C200.292 138.997 199.885 138.211 199.888 137.393C199.889 136.984 199.958 136.575 200.096 136.166C200.234 135.757 200.474 135.349 200.816 134.941C201.158 134.533 201.432 134.227 201.637 134.023C201.842 133.751 202.185 133.377 202.663 132.901C203.21 132.425 203.552 132.154 203.689 132.086C205.741 130.047 207.619 129.098 209.323 129.24C211.164 129.45 213.206 130.718 215.449 133.043C215.653 133.249 215.924 133.556 216.264 133.966C217.691 135.471 218.369 136.701 218.298 137.655C218.296 138.405 217.884 139.154 217.064 139.902C216.243 140.649 215.424 141.022 214.605 141.019C213.855 141.017 213.242 140.742 212.767 140.195C212.291 139.58 211.953 138.931 211.75 138.248C211.548 137.498 211.209 136.815 210.734 136.199C210.327 135.516 209.816 135.14 209.203 135.07C208.589 134.999 208.043 135.27 207.564 135.883C207.153 136.427 206.81 137.074 206.535 137.823C206.26 138.572 205.848 139.253 205.301 139.865C204.822 140.477 204.241 140.816 203.559 140.882Z" fill="#E94134"/>
</svg>
